<svg id="グループ_2" data-name="グループ 2" xmlns="http://www.w3.org/2000/svg" xmlns:xlink="http://www.w3.org/1999/xlink" width="95.667" height="123" viewBox="0 0 95.667 123">
  <defs>
    <clipPath id="clip-path">
      <rect id="長方形_3" data-name="長方形 3" width="95.667" height="123" fill="none"/>
    </clipPath>
  </defs>
  <g id="グループ_1" data-name="グループ 1" clip-path="url(#clip-path)">
    <path id="パス_1" data-name="パス 1" d="M82,0H13.667A13.649,13.649,0,0,0,.068,13.667L0,123l47.833-20.5L95.667,123V13.667A13.707,13.707,0,0,0,82,0" fill="#4aab79"/>
    <path id="パス_2" data-name="パス 2" d="M35.918,75.788c0,7.8.678,8.566,7.633,8.82v2.206H17.258V84.608c6.955-.254,7.634-1.017,7.634-8.82V34.4c0-7.718-.679-8.566-7.294-8.82V23.373H43.212v2.206c-6.616.254-7.294,1.1-7.294,8.82V57.468L53.474,37.877c3.732-4.156,5.258-6.616,5.258-8.651,0-2.375-1.611-3.308-6.275-3.647V23.373H75.865v2.206c-6.022.508-10.179,3.307-18.235,12.213l-8.4,9.16L67.892,76.3c3.647,5.768,6.447,7.972,10.516,8.4v2.121H60.6c-1.1-2.545-1.1-2.545-4.579-8.228L41.854,55.009l-5.936,6.7Z" fill="#fff"/>
  </g>
</svg>
