<?xml version="1.0" encoding="utf-8"?>
<!-- Generator: Adobe Illustrator 24.3.0, SVG Export Plug-In . SVG Version: 6.00 Build 0)  -->
<svg version="1.1" xmlns="http://www.w3.org/2000/svg" xmlns:xlink="http://www.w3.org/1999/xlink" x="0px"
	 y="0px" viewBox="0 0 64 64" style="enable-background:new 0 0 64 64;" xml:space="preserve">
<style type="text/css">
	.st0{fill:#4AAB79;}
	.st1{fill:#FFFFFF;}
</style>
<path class="st0" d="M48.11,3H15.89c-3.54,0-6.41,2.9-6.41,6.44L9.44,61L32,51.33L54.56,61V9.44C54.56,5.9,51.66,3,48.11,3z"/>
<g>
	<path class="st1" d="M26.38,38.74c0,3.68,0.32,4.04,3.6,4.16v1.04h-12.4V42.9c3.28-0.12,3.6-0.48,3.6-4.16V19.22
		c0-3.64-0.32-4.04-3.44-4.16v-1.04h12.08v1.04c-3.12,0.12-3.44,0.52-3.44,4.16V30.1l8.28-9.24c1.76-1.96,2.48-3.12,2.48-4.08
		c0-1.12-0.76-1.56-2.96-1.72v-1.04h11.04v1.04c-2.84,0.24-4.8,1.56-8.6,5.76l-3.96,4.32l8.8,13.84c1.72,2.72,3.04,3.76,4.96,3.96v1
		h-8.4c-0.52-1.2-0.52-1.2-2.16-3.88l-6.68-11.12l-2.8,3.16V38.74z"/>
</g>
</svg>
